<svg height="2142" width="720" xmlns="http://www.w3.org/2000/svg">
<rect height="2142" fill="#555" width="720"></rect>
<text fill="#7f7" font-family="Courier New" font-size="12" xml:space="preserve">
<tspan x="10" y="26"></tspan>
<tspan x="10" y="42">&gt; npmdoc-pug@0.0.2 test /home/travis/build/npmdoc/node-npmdoc-pug</tspan>
<tspan x="10" y="58">&gt; (set -e; export PORT=$(utility2 shServerPortRandom); utility2 test test.js)</tspan>
<tspan x="10" y="74"></tspan>
<tspan x="10" y="90"></tspan>
<tspan x="10" y="106">[MODE_BUILD=npmTest] - 2017-04-07T16:20:54Z - npm-testing /home/travis/build/npmdoc/node-npmdoc-\</tspan>
<tspan x="10" y="122">pug</tspan>
<tspan x="10" y="138"></tspan>
<tspan x="10" y="154"></tspan>
<tspan x="10" y="170">covering $ /home/travis/.nvm/versions/node/v6.10.2/bin/node /home/travis/build/npmdoc/node-npmdo\</tspan>
<tspan x="10" y="186">c-pug/test.js</tspan>
<tspan x="10" y="202">merging file:///home/travis/build/npmdoc/node-npmdoc-pug/tmp/build/test-report.json to test-repo\</tspan>
<tspan x="10" y="218">rt</tspan>
<tspan x="10" y="234">&gt; server listening on http-port 54518</tspan>
<tspan x="10" y="250">This module can be used during development</tspan>
<tspan x="10" y="266">to link the jade modules to your local development</tspan>
<tspan x="10" y="282">copies rather than the versions downloaded from npm</tspan>
<tspan x="10" y="298">Linking: pug-lexer</tspan>
<tspan x="10" y="314">Linking: pug-loader</tspan>
<tspan x="10" y="330">Linking: pug-parser</tspan>
<tspan x="10" y="346">Linking: pug-runtime</tspan>
<tspan x="10" y="362">Linking: pug-filters</tspan>
<tspan x="10" y="378">Linking: pug-linker</tspan>
<tspan x="10" y="394">Linking: pug-code-gen</tspan>
<tspan x="10" y="410">created apidoc file:///home/travis/build/npmdoc/node-npmdoc-pug/tmp/build/apidoc.html</tspan>
<tspan x="10" y="426"></tspan>
<tspan x="10" y="442"></tspan>
<tspan x="10" y="458">browserTest - created electron entry-page /home/travis/build/npmdoc/node-npmdoc-pug/tmp/electron\</tspan>
<tspan x="10" y="474">.15b4937f2410.dc9e74bd573aa.html</tspan>
<tspan x="10" y="490"></tspan>
<tspan x="10" y="506">[node test-case 1 of 6 passed] - testCase_buildLib_default</tspan>
<tspan x="10" y="522">[node test-case 2 of 6 passed] - testCase_buildReadme_default</tspan>
<tspan x="10" y="538">[node test-case 3 of 6 passed] - testCase_buildTest_default</tspan>
<tspan x="10" y="554"></tspan>
<tspan x="10" y="570">browserTest - created electron entry-page /home/travis/build/npmdoc/node-npmdoc-pug/tmp/electron\</tspan>
<tspan x="10" y="586">.15b4937f2790.779c2a8f118e.html</tspan>
<tspan x="10" y="602"></tspan>
<tspan x="10" y="618">Xlib:  extension "RANDR" missing on display ":99.0".</tspan>
<tspan x="10" y="634">Xlib:  extension "RANDR" missing on display ":99.0".</tspan>
<tspan x="10" y="650">&gt; server listening on http-port 57178</tspan>
<tspan x="10" y="666">merging file:///home/travis/build/npmdoc/node-npmdoc-pug/tmp/build/test-report.json to test-repo\</tspan>
<tspan x="10" y="682">rt</tspan>
<tspan x="10" y="698">Xlib:  extension "RANDR" missing on display ":99.0".</tspan>
<tspan x="10" y="714">[4827:0407/162055:WARNING:audio_manager.cc(314)] Multiple instances of AudioManager detected</tspan>
<tspan x="10" y="730">[4827:0407/162055:WARNING:audio_manager.cc(275)] Multiple instances of AudioManager detected</tspan>
<tspan x="10" y="746">[4865:0407/162055:ERROR:sandbox_linux.cc(343)] InitializeSandbox() called with multiple threads \</tspan>
<tspan x="10" y="762">in process gpu-process. </tspan>
<tspan x="10" y="778">merging file:///home/travis/build/npmdoc/node-npmdoc-pug/tmp/build/test-report.json to test-repo\</tspan>
<tspan x="10" y="794">rt</tspan>
<tspan x="10" y="810">Xlib:  extension "RANDR" missing on display ":99.0".</tspan>
<tspan x="10" y="826">[4830:0407/162055:WARNING:audio_manager.cc(314)] Multiple instances of AudioManager detected</tspan>
<tspan x="10" y="842">[4830:0407/162055:WARNING:audio_manager.cc(275)] Multiple instances of AudioManager detected</tspan>
<tspan x="10" y="858">[4899:0407/162056:ERROR:sandbox_linux.cc(343)] InitializeSandbox() called with multiple threads \</tspan>
<tspan x="10" y="874">in process gpu-process. </tspan>
<tspan x="10" y="890">[4830:0407/162056:ERROR:browser_gpu_channel_host_factory.cc(131)] Failed to create channel.</tspan>
<tspan x="10" y="906"></tspan>
<tspan x="10" y="922">browserTest - opened url /home/travis/build/npmdoc/node-npmdoc-pug/tmp/build/apidoc.html</tspan>
<tspan x="10" y="938"></tspan>
<tspan x="10" y="954"></tspan>
<tspan x="10" y="970">browserTest - opened url http://127.0.0.1:54518?modeTest=1</tspan>
<tspan x="10" y="986"></tspan>
<tspan x="10" y="1002">[4830:0407/162058:INFO:CONSOLE(250)] "----------|-----------|-----------|-----------|-----------\</tspan>
<tspan x="10" y="1018">|</tspan>
<tspan x="10" y="1034">File      |   % Stmts |% Branches |   % Funcs |   % Lines |</tspan>
<tspan x="10" y="1050">----------|-----------|-----------|-----------|-----------|</tspan>
<tspan x="10" y="1066">----------|-----------|-----------|-----------|-----------|</tspan>
<tspan x="10" y="1082">All files |       100 |       100 |       100 |       100 |</tspan>
<tspan x="10" y="1098">----------|-----------|-----------|-----------|-----------|</tspan>
<tspan x="10" y="1114">", source: file:///home/travis/build/npmdoc/node-npmdoc-pug/tmp/electron.15b4937f2790.779c2a8f11\</tspan>
<tspan x="10" y="1130">8e.html (250)</tspan>
<tspan x="10" y="1146">[4830:0407/162058:INFO:CONSOLE(250)] "created coverage file:///tmp/build/coverage.html/index.htm\</tspan>
<tspan x="10" y="1162">l", source: file:///home/travis/build/npmdoc/node-npmdoc-pug/tmp/electron.15b4937f2790.779c2a8f1\</tspan>
<tspan x="10" y="1178">18e.html (250)</tspan>
<tspan x="10" y="1194">[node test-case 4 of 6 passed] - testCase_buildApp_default</tspan>
<tspan x="10" y="1210"></tspan>
<tspan x="10" y="1226">browserTest - created screenCapture file:///home/travis/build/npmdoc/node-npmdoc-pug/tmp/build/s\</tspan>
<tspan x="10" y="1242">creenCapture.npmTest.browser._2Fhome_2Ftravis_2Fbuild_2Fnpmdoc_2Fnode-npmdoc-pug_2Ftmp_2Fbuild_2\</tspan>
<tspan x="10" y="1258">Fapidoc.html.png</tspan>
<tspan x="10" y="1274"></tspan>
<tspan x="10" y="1290">browserTest - created screenCapture file:///home/travis/build/npmdoc/node-npmdoc-pug/tmp/build/s\</tspan>
<tspan x="10" y="1306">creenCapture.npmTest.browser._2Fhome_2Ftravis_2Fbuild_2Fnpmdoc_2Fnode-npmdoc-pug_2Ftmp_2Fbuild_2\</tspan>
<tspan x="10" y="1322">Fapidoc.html.html</tspan>
<tspan x="10" y="1338"></tspan>
<tspan x="10" y="1354">browserTest - exit-code 0 - /home/travis/build/npmdoc/node-npmdoc-pug/tmp/build/apidoc.html</tspan>
<tspan x="10" y="1370"></tspan>
<tspan x="10" y="1386">[node test-case 5 of 6 passed] - testCase_buildApidoc_default</tspan>
<tspan x="10" y="1402"></tspan>
<tspan x="10" y="1418">browserTest - created screenCapture file:///home/travis/build/npmdoc/node-npmdoc-pug/tmp/build/s\</tspan>
<tspan x="10" y="1434">creenCapture.npmTest.browser..png</tspan>
<tspan x="10" y="1450"></tspan>
<tspan x="10" y="1466">browserTest - created screenCapture file:///home/travis/build/npmdoc/node-npmdoc-pug/tmp/build/s\</tspan>
<tspan x="10" y="1482">creenCapture.npmTest.browser..html</tspan>
<tspan x="10" y="1498"></tspan>
<tspan x="10" y="1514">browserTest - exit-code 0 - http://127.0.0.1:54518?modeTest=1</tspan>
<tspan x="10" y="1530"></tspan>
<tspan x="10" y="1546"></tspan>
<tspan x="10" y="1562">browserTest - merged coverage from /home/travis/build/npmdoc/node-npmdoc-pug/tmp/coverage.npmTes\</tspan>
<tspan x="10" y="1578">t.browser.%2F.json</tspan>
<tspan x="10" y="1594"></tspan>
<tspan x="10" y="1610"></tspan>
<tspan x="10" y="1626">browserTest - merging test-report from /home/travis/build/npmdoc/node-npmdoc-pug/tmp/test-report\</tspan>
<tspan x="10" y="1642">.npmTest.browser.%2F.json</tspan>
<tspan x="10" y="1658"></tspan>
<tspan x="10" y="1674">[node test-case 6 of 6 passed] - testCase_webpage_default</tspan>
<tspan x="10" y="1690">------------------------|-----------|-----------|-----------|-----------|</tspan>
<tspan x="10" y="1706">File                    |   % Stmts |% Branches |   % Funcs |   % Lines |</tspan>
<tspan x="10" y="1722">------------------------|-----------|-----------|-----------|-----------|</tspan>
<tspan x="10" y="1738">   node-npmdoc-pug/     |       100 |       100 |       100 |       100 |</tspan>
<tspan x="10" y="1754">      example.js        |       100 |       100 |       100 |       100 |</tspan>
<tspan x="10" y="1770">      lib.npmdoc_pug.js |       100 |       100 |       100 |       100 |</tspan>
<tspan x="10" y="1786">      test.js           |       100 |       100 |       100 |       100 |</tspan>
<tspan x="10" y="1802">------------------------|-----------|-----------|-----------|-----------|</tspan>
<tspan x="10" y="1818">All files               |       100 |       100 |       100 |       100 |</tspan>
<tspan x="10" y="1834">------------------------|-----------|-----------|-----------|-----------|</tspan>
<tspan x="10" y="1850"></tspan>
<tspan x="10" y="1866">created coverage file:///home/travis/build/npmdoc/node-npmdoc-pug/tmp/build/coverage.html/index.\</tspan>
<tspan x="10" y="1882">html</tspan>
<tspan x="10" y="1898">merging file:///home/travis/build/npmdoc/node-npmdoc-pug/tmp/build/test-report.json to test-repo\</tspan>
<tspan x="10" y="1914">rt</tspan>
<tspan x="10" y="1930"></tspan>
<tspan x="10" y="1946">-------------------------------------------------------</tspan>
<tspan x="10" y="1962">| test-report - buildNpmdoc - node - linux v6.10.2 - 2017-04-07T16:20:33.993Z</tspan>
<tspan x="10" y="1978">|   36759 ms            0 failed        6 passed      |</tspan>
<tspan x="10" y="1994">-------------------------------------------------------</tspan>
<tspan x="10" y="2010"></tspan>
<tspan x="10" y="2026">created test-report file:///home/travis/build/npmdoc/node-npmdoc-pug/tmp/build/test-report.html</tspan>
<tspan x="10" y="2042"></tspan>
<tspan x="10" y="2058"></tspan>
<tspan x="10" y="2074">npmTest - 0 failed tests</tspan>
<tspan x="10" y="2090"></tspan>
<tspan x="10" y="2106"></tspan>
<tspan x="10" y="2122">[MODE_BUILD=npmTest] - 2017-04-07T16:21:13Z - EXIT_CODE - 0</tspan>
</text>
</svg>
